<svg width="330" height="242" viewBox="0 0 330 242" fill="none" xmlns="http://www.w3.org/2000/svg">
<path d="M330 13H0V242H330V13Z" fill="#E4E3E3"/>
<path d="M0 13V237H296V203H330V13H0Z" fill="white"/>
<path d="M296 237V203H330" fill="#F4F4F4"/>
<rect y="13" width="329" height="20" fill="#4254FF"/>
<circle cx="12" cy="21" r="6" fill="#242B6C"/>
<circle cx="46" cy="21" r="6" fill="#242B6C"/>
<circle cx="80" cy="21" r="6" fill="#242B6C"/>
<circle cx="114" cy="21" r="6" fill="#242B6C"/>
<circle cx="148" cy="21" r="6" fill="#242B6C"/>
<circle cx="182" cy="21" r="6" fill="#242B6C"/>
<circle cx="216" cy="21" r="6" fill="#242B6C"/>
<circle cx="250" cy="21" r="6" fill="#242B6C"/>
<circle cx="284" cy="21" r="6" fill="#242B6C"/>
<circle cx="318" cy="21" r="6" fill="#242B6C"/>
<rect x="8" width="8" height="23" rx="3" fill="#D9D9D9"/>
<rect x="42" width="8" height="23" rx="3" fill="#D9D9D9"/>
<rect x="76" width="8" height="23" rx="3" fill="#D9D9D9"/>
<rect x="110" width="8" height="23" rx="3" fill="#D9D9D9"/>
<rect x="144" width="8" height="23" rx="3" fill="#D9D9D9"/>
<rect x="178" width="8" height="23" rx="3" fill="#D9D9D9"/>
<rect x="212" width="8" height="23" rx="3" fill="#D9D9D9"/>
<rect x="246" width="8" height="23" rx="3" fill="#D9D9D9"/>
<rect x="280" width="8" height="23" rx="3" fill="#D9D9D9"/>
<rect x="314" width="8" height="23" rx="3" fill="#D9D9D9"/>
</svg>
