<svg width="24" height="24" viewBox="0 0 24 24" fill="none" xmlns="http://www.w3.org/2000/svg">
<path d="M16.7 18.9804H7.30002C6.88002 18.9804 6.41002 18.6504 6.27002 18.2504L2.13002 6.67035C1.54002 5.01035 2.23002 4.50035 3.65002 5.52035L7.55002 8.31035C8.20002 8.76035 8.94002 8.53035 9.22002 7.80035L10.98 3.11035C11.54 1.61035 12.47 1.61035 13.03 3.11035L14.79 7.80035C15.07 8.53035 15.81 8.76035 16.45 8.31035L20.11 5.70035C21.67 4.58035 22.42 5.15035 21.78 6.96035L17.74 18.2704C17.59 18.6504 17.12 18.9804 16.7 18.9804Z" stroke="#4254FF" stroke-width="1.5" stroke-linecap="round" stroke-linejoin="round"/>
<path d="M6.5 22H17.5" stroke="#4254FF" stroke-width="1.5" stroke-linecap="round" stroke-linejoin="round"/>
<path d="M9.5 14H14.5" stroke="#4254FF" stroke-width="1.5" stroke-linecap="round" stroke-linejoin="round"/>
</svg>
