<svg width="24" height="25" viewBox="0 0 24 25" fill="none" xmlns="http://www.w3.org/2000/svg">
<path d="M4.84194 24.0267C4.52817 23.9147 4.18899 23.8465 3.90533 23.6833C3.01952 23.1729 2.58344 22.3849 2.58344 21.3589C2.58391 19.0816 2.58344 16.8043 2.58344 14.5265C2.58344 14.4338 2.58344 14.3412 2.58344 14.2395C2.312 14.2165 2.05374 14.2174 1.80536 14.169C0.968006 14.0048 0.395971 13.5066 0.125477 12.7027C-0.142193 11.9062 0.0243365 11.1757 0.568146 10.534C0.62883 10.4625 0.696571 10.3967 0.762901 10.3303C3.96084 7.13145 7.15595 3.93022 10.3628 0.740283C10.6117 0.49284 10.9179 0.246809 11.243 0.143786C12.0653 -0.116358 12.8688 -0.0537919 13.5349 0.583161C13.9423 0.972201 14.3356 1.37629 14.7335 1.77474C17.5166 4.55824 20.2972 7.34455 23.0859 10.1224C23.4853 10.5204 23.839 10.9358 23.9985 11.488C23.9985 11.8324 23.9985 12.1767 23.9985 12.5211C23.9849 12.5488 23.9675 12.5757 23.9581 12.6048C23.6034 13.66 22.8403 14.2099 21.7217 14.2151C21.6398 14.2156 21.5584 14.2151 21.4667 14.2151C21.4667 14.3567 21.4667 14.4578 21.4667 14.5594C21.4658 16.8734 21.4728 19.1875 21.4611 21.5015C21.4554 22.6013 20.7051 23.5779 19.656 23.9035C19.5088 23.9491 19.3583 23.9853 19.2096 24.0262C17.7696 24.0262 16.3297 24.0262 14.8902 24.0262C14.4743 23.871 14.3271 23.5662 14.3294 23.1315C14.3407 21.3415 14.3356 19.5511 14.3337 17.7607C14.3327 16.9619 13.8482 16.4806 13.0457 16.4778C12.3814 16.4755 11.7167 16.4769 11.0525 16.4774C10.1841 16.4783 9.716 16.9426 9.71553 17.8054C9.71459 19.5798 9.70894 21.3547 9.71976 23.1291C9.72258 23.5629 9.57769 23.8701 9.16137 24.0262C7.72187 24.0267 6.28191 24.0267 4.84194 24.0267ZM15.7426 22.6178C16.7564 22.6178 17.7339 22.6178 18.7119 22.6178C19.5954 22.6178 20.0578 22.1563 20.0578 21.2752C20.0583 18.7161 20.0573 16.157 20.0587 13.5979C20.0592 13.0983 20.3466 12.8113 20.8443 12.8076C21.1807 12.8048 21.5175 12.8123 21.8539 12.8048C22.2198 12.7968 22.5092 12.563 22.6056 12.2092C22.7138 11.8126 22.511 11.5412 22.2495 11.2796C19.0765 8.11087 15.9072 4.93928 12.7371 1.76863C12.2252 1.25681 11.8263 1.25728 11.3136 1.76957C8.48067 4.60293 5.64778 7.43629 2.81489 10.2696C2.42208 10.6624 2.02458 11.051 1.63883 11.4509C1.39938 11.6993 1.3434 12.0027 1.48077 12.3193C1.61766 12.6345 1.87122 12.8001 2.21886 12.8048C2.51617 12.809 2.81348 12.8062 3.11078 12.8062C3.73409 12.8066 3.99142 13.0649 3.99142 13.6915C3.99142 16.2506 3.99048 18.8097 3.99236 21.3688C3.99283 22.1234 4.48818 22.615 5.24368 22.6168C6.19064 22.6187 7.13714 22.6178 8.0841 22.6168C8.15184 22.6168 8.21958 22.6084 8.30661 22.6023C8.30661 22.495 8.30661 22.4023 8.30661 22.3101C8.30802 20.7215 8.29344 19.1324 8.31696 17.5443C8.33531 16.2925 9.33731 15.1922 10.5835 15.1094C11.5483 15.0449 12.5211 15.0976 13.4907 15.1004C13.5598 15.1004 13.6304 15.1178 13.6986 15.1334C14.9278 15.4128 15.7346 16.4214 15.7407 17.7094C15.7482 19.2434 15.7426 20.777 15.7426 22.3111C15.7426 22.4037 15.7426 22.4959 15.7426 22.6178Z" fill="white"/>
</svg>
