<svg width="26" height="26" viewBox="0 0 26 26" fill="none" xmlns="http://www.w3.org/2000/svg">
<path d="M1.03726 11.6697C1.19088 11.0115 1.4975 10.4535 2.0309 10.0282C2.44347 9.69907 2.83783 9.34683 3.24008 9.00445C5.58861 7.00604 7.94048 5.01193 10.2838 3.00766C11.8522 1.66623 13.9369 1.66345 15.5073 3.00334C18.2369 5.33241 20.9697 7.65778 23.7081 9.97637C24.3538 10.5229 24.7572 11.1787 24.7572 12.051C24.7572 13.2774 23.8398 14.3322 22.6425 14.4886C22.6173 14.492 22.5921 14.4945 22.5632 14.4973C22.5207 14.5013 22.4883 14.538 22.4883 14.5812C22.4883 14.6536 22.4883 14.7224 22.4883 14.7912C22.4883 17.0182 22.4901 19.2448 22.4873 21.4718C22.4858 22.6899 21.7011 23.6735 20.5329 23.9304C20.4008 23.9594 20.2663 23.977 20.1327 23.9998C20.1285 24.0005 20.1239 24.0011 20.1194 24.0011H14.9272C14.8813 24.0011 14.8443 23.9634 14.8443 23.9169C14.8446 21.9061 14.8501 19.8957 14.8428 17.8852C14.8385 16.6869 13.7942 15.7745 12.6394 15.9405C11.6445 16.0833 10.9514 16.8852 10.9493 17.9121C10.9454 19.8334 10.9481 21.7547 10.9481 23.6757C10.9481 23.7438 10.9481 23.812 10.9481 23.8817C10.9481 23.923 10.9183 23.9582 10.8783 23.9647C10.8421 23.9705 10.8136 23.9752 10.7848 23.9752C9.11717 23.9758 7.44988 23.9783 5.78229 23.9746C4.22551 23.9708 3.27074 22.6671 3.29593 21.3657C3.33844 19.1708 3.30747 16.9744 3.30747 14.7789C3.30747 14.7119 3.30747 14.645 3.30747 14.5787C3.30747 14.5361 3.2759 14.5006 3.23461 14.4954C2.73187 14.4294 2.2938 14.2588 1.93861 13.9636C1.76708 13.8208 1.64474 13.674 1.47048 13.4248C1.32081 13.211 1.23459 13.0346 1.19331 12.9442C1.15991 12.8711 1.1165 12.7749 1.07673 12.6401C1.01146 12.4186 1.00357 12.253 1.00174 12.2058C1.00023 12.1639 1.00387 12.1343 1.00174 12.0871C0.99537 11.9442 1.0063 11.8048 1.03726 11.6697ZM21.5581 13.6388C21.5581 13.5923 21.5954 13.5546 21.641 13.5546C21.8784 13.555 22.0978 13.5559 22.3176 13.5543C22.9694 13.55 23.5065 13.1743 23.7293 12.5689C23.9567 11.951 23.7891 11.311 23.2818 10.8699C23.0414 10.6611 22.7976 10.456 22.555 10.2496C19.9943 8.06863 17.4372 5.88298 14.871 3.70844C13.6579 2.68039 12.1227 2.69397 10.9168 3.71924C8.12324 6.09396 5.33086 8.46992 2.53758 10.8446C2.01724 11.2873 1.83782 11.9298 2.06308 12.5577C2.28318 13.1719 2.82508 13.5509 3.48993 13.5546C3.70729 13.5559 3.92466 13.555 4.15083 13.555C4.19667 13.555 4.23401 13.5926 4.23401 13.6392V13.8683C4.23401 16.3778 4.2331 18.8874 4.23462 21.3969C4.23523 22.3839 4.85515 23.0181 5.82055 23.0196C7.13294 23.0218 8.44534 23.0202 9.75774 23.0202C9.81026 23.0202 9.86278 23.0202 9.9238 23.0202C9.96964 23.0202 10.0067 22.9823 10.0067 22.936C10.0067 22.8549 10.0067 22.7852 10.0067 22.7155C10.0067 21.1628 10.0036 19.61 10.0097 18.0573C10.0106 17.7924 10.0273 17.5228 10.0783 17.2637C10.3704 15.7788 11.8661 14.7446 13.3321 15.0022C14.7854 15.2573 15.7657 16.4195 15.7733 17.9191C15.7815 19.5191 15.7751 21.1187 15.7754 22.7186C15.7754 22.787 15.7754 22.8555 15.7754 22.9286C15.7754 22.9718 15.8076 23.0082 15.8501 23.0125C15.8892 23.0165 15.9223 23.0199 15.9551 23.0199C17.3407 23.0202 18.7259 23.0202 20.1115 23.0178C20.2041 23.0178 20.297 23.0076 20.3871 22.9854C21.1182 22.8071 21.5569 22.2195 21.5575 21.4064C21.5596 18.8892 21.5584 16.3717 21.5584 13.8545V13.6388H21.5581Z" fill="#585E79" stroke="#585E79" stroke-width="0.65"/>
</svg>
