<svg width="26" height="26" viewBox="0 0 26 26" fill="none" xmlns="http://www.w3.org/2000/svg">
<path d="M13.13 13.8449C13.0542 13.834 12.9567 13.834 12.87 13.8449C10.9633 13.7799 9.44666 12.2199 9.44666 10.3024C9.44666 8.34152 11.0283 6.74902 13 6.74902C14.9608 6.74902 16.5533 8.34152 16.5533 10.3024C16.5425 12.2199 15.0367 13.7799 13.13 13.8449Z" stroke="#585E79" stroke-width="1.5" stroke-linecap="round" stroke-linejoin="round"/>
<path d="M20.3017 20.9949C18.3734 22.7608 15.8167 23.8333 13 23.8333C10.1834 23.8333 7.6267 22.7608 5.69836 20.9949C5.8067 19.9766 6.4567 18.9799 7.61586 18.1999C10.5842 16.2283 15.4375 16.2283 18.3842 18.1999C19.5434 18.9799 20.1934 19.9766 20.3017 20.9949Z" stroke="#585E79" stroke-width="1.5" stroke-linecap="round" stroke-linejoin="round"/>
<path d="M13 23.8332C18.983 23.8332 23.8333 18.9829 23.8333 12.9998C23.8333 7.01675 18.983 2.1665 13 2.1665C7.01687 2.1665 2.16663 7.01675 2.16663 12.9998C2.16663 18.9829 7.01687 23.8332 13 23.8332Z" stroke="#585E79" stroke-width="1.5" stroke-linecap="round" stroke-linejoin="round"/>
</svg>
