<svg width="26" height="26" viewBox="0 0 26 26" fill="none" xmlns="http://www.w3.org/2000/svg">
<path d="M9.39252 15.167H4.33335C3.14169 15.167 2.16669 16.142 2.16669 17.3337V23.8337H9.39252V15.167Z" stroke="#4254FF" stroke-width="1.5" stroke-miterlimit="10" stroke-linecap="round" stroke-linejoin="round"/>
<path d="M14.4408 10.833H11.5483C10.3567 10.833 9.38165 11.808 9.38165 12.9997V23.833H16.6075V12.9997C16.6075 11.808 15.6433 10.833 14.4408 10.833Z" stroke="#4254FF" stroke-width="1.5" stroke-miterlimit="10" stroke-linecap="round" stroke-linejoin="round"/>
<path d="M21.6666 18.417H16.6075V23.8337H23.8333V20.5837C23.8333 19.392 22.8583 18.417 21.6666 18.417Z" stroke="#4254FF" stroke-width="1.5" stroke-miterlimit="10" stroke-linecap="round" stroke-linejoin="round"/>
<path d="M13.5633 2.24206L14.1375 3.3904C14.2133 3.5529 14.4192 3.70456 14.5925 3.72623L15.6325 3.89956C16.2933 4.0079 16.4558 4.49538 15.9792 4.96121L15.1667 5.77371C15.0258 5.91454 14.95 6.17455 14.9933 6.35872L15.2208 7.3554C15.405 8.14623 14.9825 8.44957 14.2892 8.0379L13.3142 7.46374C13.1408 7.35541 12.8483 7.35541 12.675 7.46374L11.7 8.0379C11.0067 8.44957 10.5842 8.14623 10.7683 7.3554L10.9958 6.35872C11.0392 6.17455 10.9633 5.90371 10.8225 5.77371L10.0208 4.97205C9.54417 4.49539 9.69584 4.01871 10.3675 3.91037L11.4075 3.73707C11.5808 3.70457 11.7867 3.55291 11.8625 3.40124L12.4367 2.25288C12.7508 1.62454 13.2492 1.62456 13.5633 2.24206Z" stroke="#4254FF" stroke-width="1.5" stroke-linecap="round" stroke-linejoin="round"/>
</svg>
