<svg width="19" height="22" viewBox="0 0 19 22" fill="none" xmlns="http://www.w3.org/2000/svg">
<path d="M0 10.5224C0.0370628 10.3571 0.0694392 10.191 0.111614 10.0274C0.804731 7.3576 4.08543 6.43785 6.0685 8.35702C6.11365 8.4009 6.15966 8.44392 6.2176 8.49888C6.4911 8.3306 6.76247 8.16531 7.03256 7.99789C8.65991 6.98995 10.2864 5.98074 11.9155 4.97536C12.0326 4.90294 12.0803 4.84926 12.0305 4.69334C11.3399 2.53347 12.6827 0.389372 14.9389 0.0345067C14.9729 0.0289686 15.0049 0.0119282 15.0377 0C15.2933 0 15.5489 0 15.8045 0C15.8437 0.0127803 15.882 0.0319507 15.9221 0.0379148C17.3675 0.248363 18.5318 1.30359 18.8773 2.72347C18.9289 2.93478 18.9591 3.15119 18.9996 3.36547C18.9996 3.49327 18.9996 3.62108 18.9996 3.74888C18.9634 3.95634 18.9408 4.16764 18.8884 4.37128C18.5459 5.70128 17.7254 6.60356 16.4065 6.98782C15.0867 7.37251 13.9126 7.04576 12.9085 6.10939C12.8676 6.07105 12.8386 6.01993 12.7922 5.95986C10.8181 7.18251 8.86738 8.39067 6.94948 9.57881C7.01594 10.0334 7.1267 10.4645 7.12798 10.8956C7.12883 11.328 7.0202 11.7608 6.95332 12.235C8.85417 13.4125 10.8057 14.6215 12.7645 15.8348C12.8685 15.738 12.9622 15.6418 13.0648 15.5566C14.1294 14.6743 15.3312 14.4225 16.6293 14.8945C17.9354 15.37 18.6941 16.3443 18.9459 17.7109C18.9672 17.8276 18.9821 17.9456 19 18.0628C19 18.1906 19 18.3184 19 18.4462C18.9876 18.4935 18.9702 18.5399 18.9642 18.5876C18.7785 20.045 17.9976 21.0461 16.6386 21.5893C16.3737 21.6954 16.0835 21.7392 15.8049 21.8117C15.5493 21.8117 15.2937 21.8117 15.0381 21.8117C14.6666 21.7017 14.2768 21.6319 13.9267 21.4747C12.2878 20.7402 11.4699 18.8931 12.0147 17.1805C12.0791 16.979 12.0254 16.9019 11.8618 16.8018C10.0317 15.6767 8.20706 14.5435 6.38076 13.4129C6.32751 13.3801 6.27213 13.3507 6.21079 13.3153C5.83462 13.7026 5.4133 14.0076 4.92083 14.2104C2.78823 15.088 0.371906 13.7119 0.0400449 11.4307C0.0332288 11.3825 0.0140587 11.3365 0.000426425 11.2897C4.16034e-07 11.0336 0 10.778 0 10.5224ZM15.4126 20.5051C16.6612 20.5055 17.6747 19.4989 17.6802 18.2528C17.6858 16.9982 16.6702 15.9762 15.416 15.9749C14.1686 15.9736 13.159 16.9782 13.1505 18.2285C13.1419 19.4856 14.1546 20.5047 15.4126 20.5051ZM13.1505 3.5806C13.1569 4.83818 14.1776 5.84612 15.4352 5.83632C16.677 5.82695 17.6849 4.80538 17.6802 3.56016C17.6755 2.30513 16.648 1.29251 15.3934 1.30657C14.1401 1.3202 13.1441 2.33027 13.1505 3.5806ZM1.30572 10.9105C1.30913 12.1613 2.31536 13.1675 3.56442 13.1696C4.822 13.1718 5.83845 12.1566 5.83675 10.9011C5.83462 9.64612 4.81433 8.63605 3.55504 8.64244C2.30641 8.64841 1.30231 9.66103 1.30572 10.9105Z" fill="white"/>
</svg>
