<svg width="72" height="64" viewBox="0 0 72 64" fill="none" xmlns="http://www.w3.org/2000/svg">
<path d="M36.0699 64.0011C29.2998 58.3761 22.5085 52.8327 15.8327 47.1563C10.975 43.0262 6.58417 38.4646 3.49741 32.8185C0.101744 26.6058 -0.756606 20.0059 0.64175 13.1519C1.70525 7.92795 4.76136 3.99135 9.75818 1.94843C18.0658 -1.44945 25.9041 -0.423324 32.9761 5.18539C34.1127 6.08792 34.9946 7.30528 36.0157 8.39903C36.9707 7.36358 37.8479 6.22085 38.9114 5.288C43.2244 1.50999 48.358 0.00345126 54.0505 0.106064C57.6843 0.171363 61.0988 1.01559 64.1927 2.92558C69.4017 6.14156 71.4816 11.053 71.9178 16.8879C72.663 26.8437 68.4797 34.8171 61.811 41.8251C56.8283 47.0607 51.0675 51.4147 45.5047 56.002C42.2929 58.6489 39.152 61.3822 36.0699 64.0011Z" fill="#FF4141"/>
</svg>
